<svg width="25" height="25" viewBox="0 0 25 25" fill="none" xmlns="http://www.w3.org/2000/svg">
<path d="M15.4885 21.9528V13.9528C15.4885 13.6876 15.3831 13.4332 15.1956 13.2457C15.008 13.0582 14.7537 12.9528 14.4885 12.9528H10.4885C10.2232 12.9528 9.96889 13.0582 9.78136 13.2457C9.59382 13.4332 9.48846 13.6876 9.48846 13.9528V21.9528" stroke="#E56B4E" stroke-width="2" stroke-linecap="round" stroke-linejoin="round"/>
<path d="M3.48846 10.9528C3.48839 10.6619 3.5518 10.3744 3.67425 10.1105C3.79671 9.84663 3.97526 9.61261 4.19746 9.42482L11.1975 3.42582C11.5585 3.12073 12.0158 2.95334 12.4885 2.95334C12.9611 2.95334 13.4185 3.12073 13.7795 3.42582L20.7795 9.42482C21.0017 9.61261 21.1802 9.84663 21.3027 10.1105C21.4251 10.3744 21.4885 10.6619 21.4885 10.9528V19.9528C21.4885 20.4833 21.2778 20.992 20.9027 21.367C20.5276 21.7421 20.0189 21.9528 19.4885 21.9528H5.48846C4.95803 21.9528 4.44932 21.7421 4.07425 21.367C3.69918 20.992 3.48846 20.4833 3.48846 19.9528V10.9528Z" stroke="#E56B4E" stroke-width="2" stroke-linecap="round" stroke-linejoin="round"/>
</svg>
